<svg width="770" height="240" viewBox="0 0 770 240" fill="none" xmlns="http://www.w3.org/2000/svg">
<g clip-path="url(#clip0_3_4)">
<path d="M73.8 41.6C66 40 60 38.8 51.8 38.8C28.2 38.8 18.8 50 18.8 70V84.6H4V108.2H18.8V180H47.6V108.2H68.6L70.6 84.6H47.6V73.2C47.6 66.8 48.2 62.8 57.4 62.8C60.8 62.8 66.2 63.4 70.2 64.2L73.8 41.6ZM160.675 180V117.8C160.675 90.8 153.275 80.6 119.475 80.6C108.275 80.6 93.675 82.6 84.475 85.4L88.275 107C97.475 105.2 106.075 104.2 114.675 104.2C130.075 104.2 131.875 107.6 131.875 117.6V125H110.875C90.875 125 81.875 132.8 81.875 152.4C81.875 169 89.275 182 107.275 182C113.875 182 123.875 180 135.075 173.8L137.075 180H160.675ZM131.875 156.2C127.475 158.2 123.275 159.6 117.275 159.6C111.675 159.6 109.475 157.4 109.475 152C109.475 146.6 111.875 145 118.075 145H131.875V156.2ZM207.48 119.8C207.48 109.8 211.68 105.2 223.28 105.2C228.88 105.2 237.28 106.2 243.28 107.6L246.88 83.6C237.08 81.4 230.08 80.6 223.28 80.6C191.68 80.6 178.68 92.4 178.68 120.2V142.4C178.68 170.2 191.68 182 223.28 182C230.08 182 237.08 181.2 246.88 179L243.28 155C236.28 156.6 230.68 157.4 223.28 157.4C211.68 157.4 207.48 152.8 207.48 142.8V119.8ZM341.153 141.4V121C341.153 99.8 334.153 80.6 301.753 80.6C269.353 80.6 259.953 98.6 259.953 119.6V142.4C259.953 166.4 271.953 182 303.553 182C317.153 182 331.353 179 340.153 175.8L335.953 154.2C327.353 156.8 315.353 158.4 306.353 158.4C293.153 158.4 288.753 155.4 288.753 144.2V141.4H341.153ZM313.953 119.8H288.753V115.6C288.753 108.8 291.953 103.2 301.953 103.2C311.953 103.2 313.953 108.8 313.953 115.6V119.8ZM448.619 141V115.8C448.619 94 440.219 80.6 418.619 80.6C408.019 80.6 398.819 83 391.019 86V38.8L362.219 42.8V178.8C375.619 181 391.419 182 401.819 182C442.019 182 448.619 164.2 448.619 141ZM391.019 111C396.419 108.2 403.219 105.6 409.419 105.6C417.019 105.6 419.819 109.6 419.819 116V141.2C419.819 150.4 417.219 157 402.819 157C398.819 157 395.219 157 391.019 156.6V111ZM508.641 182C543.241 182 552.641 162.6 552.641 142.6V120C552.641 100 543.241 80.6 508.641 80.6C474.041 80.6 464.641 100 464.641 120V142.6C464.641 162.6 474.041 182 508.641 182ZM508.641 157.8C498.241 157.8 493.441 152.6 493.441 143.4V119.2C493.441 110 498.241 104.8 508.641 104.8C519.041 104.8 523.841 110 523.841 119.2V143.4C523.841 152.6 519.041 157.8 508.641 157.8ZM612.547 182C647.147 182 656.547 162.6 656.547 142.6V120C656.547 100 647.147 80.6 612.547 80.6C577.947 80.6 568.547 100 568.547 120V142.6C568.547 162.6 577.947 182 612.547 182ZM612.547 157.8C602.147 157.8 597.347 152.6 597.347 143.4V119.2C597.347 110 602.147 104.8 612.547 104.8C622.947 104.8 627.747 110 627.747 119.2V143.4C627.747 152.6 622.947 157.8 612.547 157.8ZM706.253 180V38.8L677.453 42.8V180H706.253ZM710.053 131L736.053 180H766.853L740.053 131L765.653 82.6H734.853L710.053 131Z" fill="black"/>
</g>
<defs>
<clipPath id="clip0_3_4">
<rect width="770" height="240" fill="white"/>
</clipPath>
</defs>
</svg>
