<svg width="770" height="249" viewBox="0 0 770 249" fill="none" xmlns="http://www.w3.org/2000/svg">
<path d="M155 43.4C154.867 43.5333 154.667 43.8667 154.4 44.4C154.267 44.9333 154.2 45.8667 154.2 47.2C154.2 49.0667 154.467 50.8667 155 52.6V118.8C155 125.6 154.333 132.133 153 138.4C151.667 144.667 149.333 150.267 146 155.2C142.8 160 138.333 163.8 132.6 166.6C127 169.533 119.8 171 111 171H108.4C100.8 171 94.6 169.933 89.8 167.8C85.1333 165.8 81.4667 163.2 78.8 160C76.1333 156.8 74.3333 153.333 73.4 149.6C72.4667 145.733 72 142.067 72 138.6C72 135.667 72.4 132.867 73.2 130.2C73.8667 127.4 74.9333 125 76.4 123C77.7333 120.867 79.4 119.2 81.4 118C83.4 116.667 85.6667 116 88.2 116C90.6 116 92.1333 116.667 92.8 118C93.4667 119.2 93.8 120.467 93.8 121.8C93.8 124.733 93.2 127.2 92 129.2C90.8 131.067 89.4667 132.733 88 134.2C86.6667 135.667 85.4 137.133 84.2 138.6C83 140.067 82.4 141.867 82.4 144C82.4 150.4 84.5333 155 88.8 157.8C93.0667 160.6 98.4 162 104.8 162C110.4 162 115.267 160.867 119.4 158.6C123.533 156.333 126.933 153.467 129.6 150C132.4 146.533 134.467 142.8 135.8 138.8C137.133 134.667 137.8 130.8 137.8 127.2L134.8 127.4C130 127.4 125.8 126.333 122.2 124.2C118.733 121.933 115.8 119.133 113.4 115.8C111.133 112.467 109.4 108.867 108.2 105C107.133 101.133 106.6 97.5333 106.6 94.2V87.2C106.6 84.6667 106.933 81.7333 107.6 78.4C108.267 74.9333 109.2 71.4 110.4 67.8C111.6 64.0667 113.067 60.4667 114.8 57C116.533 53.4 118.4 50.2 120.4 47.4C122.4 44.6 124.533 42.3333 126.8 40.6C129.067 38.8667 131.4 38 133.8 38C134.733 38 135.8 38.2 137 38.6L151 39.6C151.933 39.7333 152.8 40.0667 153.6 40.6C154.533 41.1333 155 42.0667 155 43.4ZM137.8 67.4C138.067 66.3333 138.333 65.3333 138.6 64.4C138.867 63.4667 139 62.4 139 61.2C139 59.4667 138.533 57.9333 137.6 56.6C136.8 55.1333 135.267 54.4 133 54.4C130.067 54.4 127.667 55.6 125.8 58C123.933 60.4 122.467 63.2667 121.4 66.6C120.467 69.9333 119.8 73.4 119.4 77C119 80.6 118.8 83.5333 118.8 85.8C118.8 87.5333 118.933 90.0667 119.2 93.4C119.467 96.6 120.067 99.8 121 103C122.067 106.2 123.467 109 125.2 111.4C127.067 113.8 129.533 115 132.6 115C132.867 115 133.6 114.933 134.8 114.8C136.133 114.667 137.133 114.467 137.8 114.2V67.4ZM200.886 119.4C198.886 122.2 197.219 125.333 195.886 128.8C194.686 132.133 193.619 135.667 192.686 139.4C191.753 143 190.953 146.667 190.286 150.4C189.753 154 189.153 157.467 188.486 160.8C188.219 161.6 187.153 162.133 185.286 162.4C183.553 162.667 182.286 162.8 181.486 162.8C179.086 162.8 177.086 162.667 175.486 162.4C174.019 162.133 172.886 161.533 172.086 160.6C171.286 159.533 170.686 158 170.286 156C169.886 153.867 169.553 151.067 169.286 147.6L171.886 88.2C171.886 86.4667 172.819 85.6 174.686 85.6C175.353 85.6 176.286 85.7333 177.486 86C178.686 86.1333 179.953 86.4 181.286 86.8C182.619 87.2 183.753 87.7333 184.686 88.4C185.619 88.9333 186.086 89.6 186.086 90.4V131C186.219 130.867 186.419 130.333 186.686 129.4C187.619 127 188.753 124.067 190.086 120.6C191.419 117 192.886 113.6 194.486 110.4C196.086 107.2 197.753 104.467 199.486 102.2C201.353 99.9333 203.219 98.8 205.086 98.8C207.486 98.8 209.286 99.4 210.486 100.6C211.819 101.667 212.819 103.067 213.486 104.8C214.153 106.533 214.553 108.4 214.686 110.4C214.819 112.4 214.886 114.333 214.886 116.2C214.886 117.533 214.753 119.733 214.486 122.8C214.219 125.867 214.086 130.467 214.086 136.6C214.086 140.067 214.419 143.2 215.086 146C215.753 148.8 217.086 150.2 219.086 150.2C220.553 150.2 221.886 149.533 223.086 148.2C224.286 146.867 225.353 145.2 226.286 143.2C227.353 141.2 228.219 139.067 228.886 136.8C229.553 134.533 229.953 132.4 230.086 130.4C230.219 127.867 231.219 126.6 233.086 126.6C234.286 126.6 235.086 127 235.486 127.8C235.886 128.6 236.086 129.533 236.086 130.6V131C235.953 133.667 235.419 136.667 234.486 140C233.686 143.333 232.419 146.467 230.686 149.4C229.086 152.333 226.953 154.8 224.286 156.8C221.619 158.8 218.353 159.8 214.486 159.8C208.486 159.8 204.619 157.667 202.886 153.4C201.286 149 200.486 142.533 200.486 134L200.886 119.4ZM278.823 150.6C278.823 153.8 277.757 156.267 275.623 158C273.49 159.733 271.023 161 268.223 161.8C265.557 162.6 262.823 163.067 260.023 163.2C257.357 163.467 255.423 163.6 254.223 163.6C252.357 163.6 250.023 163.4 247.223 163C244.557 162.6 241.89 162 239.223 161.2C236.69 160.267 234.49 159 232.623 157.4C230.89 155.8 230.023 153.8 230.023 151.4C230.023 149.933 230.557 148.933 231.623 148.4C232.823 147.733 233.957 147.4 235.023 147.4C236.49 147.4 237.89 147.933 239.223 149C240.69 150.067 242.157 151.2 243.623 152.4C245.223 153.6 246.957 154.733 248.823 155.8C250.69 156.867 252.823 157.4 255.223 157.4C256.29 157.4 257.69 157.067 259.423 156.4C261.29 155.6 262.223 154.267 262.223 152.4C262.223 150.533 261.423 148.733 259.823 147C258.357 145.267 256.423 143.467 254.023 141.6C251.757 139.733 249.29 137.8 246.623 135.8C243.957 133.8 241.423 131.667 239.023 129.4C236.757 127 234.823 124.4 233.223 121.6C231.757 118.8 231.023 115.733 231.023 112.4C231.023 107.733 232.49 103.8 235.423 100.6C238.49 97.4 242.023 94.8667 246.023 93C250.157 91.1333 254.357 89.8 258.623 89C262.89 88.2 266.223 87.8 268.623 87.8C270.89 87.8 273.157 88.2667 275.423 89.2C277.69 90.1333 278.823 91.9333 278.823 94.6C278.823 95.4 278.623 96.6 278.223 98.2C277.957 99.6667 277.423 101.133 276.623 102.6C275.957 104.067 275.023 105.4 273.823 106.6C272.623 107.667 271.09 108.2 269.223 108.2C268.69 108.2 268.157 108 267.623 107.6C267.09 107.067 266.49 106.533 265.823 106C265.157 105.333 264.423 104.8 263.623 104.4C262.957 103.867 262.157 103.6 261.223 103.6C256.557 103.6 253.29 105 251.423 107.8C249.557 110.467 248.623 113.333 248.623 116.4C248.623 119.067 250.157 121.867 253.223 124.8C256.423 127.733 259.89 130.667 263.623 133.6C267.49 136.533 270.957 139.467 274.023 142.4C277.223 145.2 278.823 147.933 278.823 150.6ZM283.131 126.8C283.265 120 283.465 113.067 283.731 106C283.998 98.9333 284.265 92.4 284.531 86.4C284.531 85.3333 283.465 84.6 281.331 84.2C279.198 83.8 276.798 83.4 274.131 83C271.465 82.6 269.065 82 266.931 81.2C264.798 80.2667 263.731 78.8 263.731 76.8C263.731 75.0667 265.465 74.0667 268.931 73.8C272.398 73.5333 277.531 73.4 284.331 73.4C284.865 73.4 285.198 72.6 285.331 71C285.598 69.4 285.731 67.4 285.731 65C285.865 62.4667 285.931 59.8 285.931 57C286.065 54.2 286.198 51.6 286.331 49.2C286.465 46.6667 286.665 44.6 286.931 43C287.331 41.4 287.798 40.6 288.331 40.6C288.998 40.6 290.198 40.7333 291.931 41C293.665 41.2667 295.465 41.6667 297.331 42.2C299.198 42.6 300.798 43.1333 302.131 43.8C303.598 44.4667 304.331 45.2 304.331 46L302.131 72C302.131 72.8 302.798 73.4 304.131 73.8C305.598 74.0667 307.398 74.2667 309.531 74.4C311.798 74.4 314.131 74.4 316.531 74.4C319.065 74.4 321.398 74.6 323.531 75C325.798 75.4 327.598 76.0667 328.931 77C330.398 77.8 331.131 79.0667 331.131 80.8C331.131 81.0667 330.998 81.5333 330.731 82.2C330.465 82.7333 330.131 83 329.731 83C329.465 83 329.065 82.8 328.531 82.4C328.131 82 326.931 81.8 324.931 81.8C324.398 81.8 322.931 81.8667 320.531 82C318.131 82.1333 315.598 82.3333 312.931 82.6C310.265 82.8667 307.798 83.2 305.531 83.6C303.398 83.8667 302.198 84.2667 301.931 84.8C301.798 85.0667 301.598 86.6667 301.331 89.6C301.198 92.4 300.998 96.1333 300.731 100.8C300.598 105.467 300.465 110.867 300.331 117C300.198 123 300.131 129.333 300.131 136C300.131 138.533 300.265 141 300.531 143.4C300.798 145.8 301.198 148 301.731 150C302.265 151.867 302.931 153.4 303.731 154.6C304.665 155.8 305.731 156.4 306.931 156.4C308.665 156.4 310.265 155.667 311.731 154.2C313.198 152.733 314.531 150.733 315.731 148.2C316.931 145.667 317.998 142.8 318.931 139.6C319.865 136.4 320.665 133.133 321.331 129.8C321.731 127.8 322.198 126.4 322.731 125.6C323.265 124.667 324.065 124.2 325.131 124.2C326.065 124.2 326.865 124.533 327.531 125.2C328.331 125.733 328.731 127.067 328.731 129.2C328.731 130.533 328.665 131.4 328.531 131.8C328.131 134.2 327.331 137.533 326.131 141.8C325.065 145.933 323.531 150.067 321.531 154.2C319.665 158.2 317.331 161.733 314.531 164.8C311.731 167.867 308.465 169.4 304.731 169.4C301.131 169.4 297.998 168.333 295.331 166.2C292.665 164.2 290.398 161.4 288.531 157.8C286.798 154.067 285.465 149.733 284.531 144.8C283.598 139.733 283.131 134.333 283.131 128.6V126.8ZM401.816 141.2C401.549 143.067 400.882 145.267 399.816 147.8C398.749 150.333 397.349 152.8 395.616 155.2C394.016 157.467 392.082 159.4 389.816 161C387.682 162.6 385.282 163.4 382.616 163.4C378.616 163.4 375.082 161.867 372.016 158.8C369.082 155.733 367.282 151.4 366.616 145.8C365.816 147.933 364.882 150.4 363.816 153.2C362.749 156 361.416 158.6 359.816 161C358.216 163.4 356.349 165.4 354.216 167C352.216 168.733 349.816 169.6 347.016 169.6C346.216 169.6 345.616 169.533 345.216 169.4C344.816 169.267 344.349 169.067 343.816 168.8C343.416 168.667 342.882 168.533 342.216 168.4C341.682 168.267 340.882 168.2 339.816 168.2C336.616 168.2 333.882 167.133 331.616 165C329.482 163 327.749 160.4 326.416 157.2C325.082 154 324.082 150.533 323.416 146.8C322.882 142.933 322.616 139.333 322.616 136C322.616 128 323.016 120.4 323.816 113.2C324.749 106 326.216 99.6667 328.216 94.2C330.216 88.6 332.816 84.2 336.016 81C339.216 77.6667 343.082 76 347.616 76C350.282 76 352.282 76.2667 353.616 76.8C355.082 77.2 356.416 77.7333 357.616 78.4C358.816 78.9333 360.082 79.5333 361.416 80.2C362.882 80.8667 364.882 81.4 367.416 81.8C370.216 83.4 372.149 85.3333 373.216 87.6C374.416 89.7333 375.149 92.0667 375.416 94.6C375.816 97.1333 375.949 99.8 375.816 102.6C375.682 105.267 375.816 107.933 376.216 110.6C376.216 110.733 376.482 110.933 377.016 111.2C377.682 111.467 378.416 111.8 379.216 112.2C380.016 112.467 380.682 112.933 381.216 113.6C381.882 114.133 382.216 114.867 382.216 115.8V116.6C380.882 120.067 380.082 123.133 379.816 125.8C379.549 128.467 379.416 131.667 379.416 135.4C379.416 137.267 379.482 139.333 379.616 141.6C379.882 143.733 380.216 145.8 380.616 147.8C381.149 149.667 381.882 151.267 382.816 152.6C383.749 153.8 384.949 154.4 386.416 154.4C388.016 154.4 389.416 153.6 390.616 152C391.949 150.4 393.016 148.6 393.816 146.6C394.749 144.467 395.482 142.333 396.016 140.2C396.682 138.067 397.082 136.467 397.216 135.4C397.482 133.8 398.149 133 399.216 133C399.882 133 400.482 133.4 401.016 134.2C401.682 134.867 402.016 136.133 402.016 138C402.016 138.533 402.016 139.067 402.016 139.6C402.016 140 401.949 140.533 401.816 141.2ZM364.816 108.8C364.816 107.333 364.682 105.6 364.416 103.6C364.149 101.6 363.682 99.7333 363.016 98C362.349 96.2667 361.349 94.8 360.016 93.6C358.682 92.4 356.882 91.8 354.616 91.8C350.882 91.8 347.816 93.5333 345.416 97C343.149 100.333 341.349 104.333 340.016 109C338.682 113.533 337.816 118.267 337.416 123.2C337.016 128 336.816 131.8 336.816 134.6C336.816 136.733 336.882 139.333 337.016 142.4C337.282 145.333 337.682 148.133 338.216 150.8C338.749 153.467 339.482 155.733 340.416 157.6C341.482 159.467 342.816 160.4 344.416 160.4C348.282 160.4 351.216 158.933 353.216 156C355.349 152.933 356.949 149.2 358.016 144.8C359.082 140.267 359.816 135.467 360.216 130.4C360.749 125.2 361.216 120.467 361.616 116.2C361.882 113.933 362.482 112.533 363.416 112C364.349 111.333 364.816 110.867 364.816 110.6V108.8ZM462.272 168.2C462.272 169.533 461.672 170.467 460.472 171C459.272 171.533 458.139 171.8 457.072 171.8L453.072 171.4C452.405 171.4 452.072 171.8 452.072 172.6L451.872 175C452.005 178.6 452.072 183.133 452.072 188.6C452.072 194.067 452.072 199.333 452.072 204.4C452.072 209.733 451.872 214.933 451.472 220C451.205 225.2 450.472 229.8 449.272 233.8C448.072 237.933 446.339 241.2 444.072 243.6C441.939 246.133 438.939 247.4 435.072 247.4C431.739 247.4 428.205 247.2 424.472 246.8C420.872 246.533 417.539 245.733 414.472 244.4C411.539 243.067 409.072 241.067 407.072 238.4C405.205 235.867 404.272 232.4 404.272 228C404.272 223.6 404.739 219.067 405.672 214.4C406.739 209.867 408.205 205.4 410.072 201C411.939 196.733 414.139 192.6 416.672 188.6C419.339 184.733 422.205 181.267 425.272 178.2C426.872 176.6 428.605 174.933 430.472 173.2C432.472 171.6 434.205 170.267 435.672 169.2V169C435.939 166.2 436.139 163.4 436.272 160.6C436.405 157.8 436.472 154.933 436.472 152C435.805 153.2 435.005 154.867 434.072 157C433.139 159 432.005 160.933 430.672 162.8C429.472 164.667 428.072 166.267 426.472 167.6C424.872 169.067 423.072 169.8 421.072 169.8C420.005 169.8 419.072 169.6 418.272 169.2C417.472 168.8 416.339 168.6 414.872 168.6C411.139 168.333 408.005 167.333 405.472 165.6C403.072 163.867 401.139 161.467 399.672 158.4C398.339 155.333 397.405 151.733 396.872 147.6C396.339 143.333 396.072 138.6 396.072 133.4C396.072 127.133 396.405 120.667 397.072 114C397.872 107.333 399.205 101.267 401.072 95.8C402.939 90.2 405.405 85.6667 408.472 82.2C411.672 78.6 415.672 76.8 420.472 76.8C421.005 76.8 421.672 77 422.472 77.4C423.405 77.8 424.339 78.2667 425.272 78.8C426.339 79.2 427.339 79.6667 428.272 80.2C429.339 80.6 430.139 80.8667 430.672 81C433.339 81.5333 435.805 82.2 438.072 83C440.339 83.8 442.272 84.8667 443.872 86.2C445.472 87.4 446.739 89.0667 447.672 91.2C448.605 93.2 449.072 95.7333 449.072 98.8C449.072 100.933 448.872 102.867 448.472 104.6C448.205 106.333 448.072 108.533 448.072 111.2C448.072 112.267 448.472 113 449.272 113.4C450.072 113.8 450.939 114.133 451.872 114.4C452.939 114.667 453.872 115 454.672 115.4C455.472 115.667 455.872 116.333 455.872 117.4C455.872 117.667 455.539 118.333 454.872 119.4C454.339 120.333 454.005 120.933 453.872 121.2C453.472 122.267 453.139 124 452.872 126.4C452.605 128.667 452.405 131.2 452.272 134C452.139 136.667 452.005 139.467 451.872 142.4C451.872 145.2 451.872 147.733 451.872 150C451.872 151.733 451.872 154.067 451.872 157C451.872 159.8 451.939 162.133 452.072 164H452.872C453.139 164 453.405 163.933 453.672 163.8C453.939 163.8 454.139 163.8 454.272 163.8C455.472 163.8 457.072 164.133 459.072 164.8C461.205 165.6 462.272 166.733 462.272 168.2ZM436.672 106.4C436.672 104.933 436.539 103.267 436.272 101.4C436.005 99.5333 435.539 97.8 434.872 96.2C434.205 94.4667 433.205 93.0667 431.872 92C430.672 90.8 429.139 90.2 427.272 90.2C424.739 90.2 422.339 91.2 420.072 93.2C417.939 95.2 416.005 98.0667 414.272 101.8C412.672 105.4 411.339 109.867 410.272 115.2C409.339 120.4 408.872 126.333 408.872 133C408.872 135.8 408.939 138.733 409.072 141.8C409.339 144.733 409.672 147.4 410.072 149.8C410.605 152.2 411.339 154.2 412.272 155.8C413.339 157.4 414.672 158.2 416.272 158.2C419.072 158.2 421.539 157 423.672 154.6C425.805 152.2 427.539 149.267 428.872 145.8C430.339 142.2 431.405 138.533 432.072 134.8C432.872 130.933 433.339 127.6 433.472 124.8C433.605 120.933 433.805 118.333 434.072 117C434.339 115.533 434.605 114.6 434.872 114.2C435.672 113.133 436.139 111.867 436.272 110.4C436.539 108.933 436.672 107.6 436.672 106.4ZM435.872 176C432.805 178.133 429.872 181.133 427.072 185C424.405 188.867 422.072 193.067 420.072 197.6C418.072 202.133 416.472 206.733 415.272 211.4C414.205 216.067 413.672 220.267 413.672 224C413.672 225.333 413.805 226.8 414.072 228.4C414.339 230 414.739 231.467 415.272 232.8C415.939 234.267 416.805 235.467 417.872 236.4C419.072 237.333 420.472 237.8 422.072 237.8C424.872 237.8 427.139 236.6 428.872 234.2C430.739 231.933 432.139 229.2 433.072 226C434.139 222.8 434.805 219.533 435.072 216.2C435.472 212.867 435.672 210.2 435.672 208.2C435.672 207.8 435.672 207.2 435.672 206.4C435.672 205.6 435.672 204.067 435.672 201.8C435.805 199.533 435.872 196.333 435.872 192.2C435.872 188.2 435.872 182.8 435.872 176ZM521.984 134.8C521.984 135.733 521.651 138 520.984 141.6C520.451 145.067 519.384 148.8 517.784 152.8C516.318 156.667 514.251 160.133 511.584 163.2C509.051 166.267 505.784 167.8 501.784 167.8C497.518 167.8 494.118 166.267 491.584 163.2C489.051 160.267 487.118 156.733 485.784 152.6C484.451 148.333 483.584 143.933 483.184 139.4C482.784 134.733 482.584 130.867 482.584 127.8C482.584 124.333 482.784 120.867 483.184 117.4C483.584 113.8 483.851 110.267 483.984 106.8C483.984 105.733 483.451 105.067 482.384 104.8C481.318 104.533 480.318 104.4 479.384 104.4C477.784 104.4 476.784 104.6 476.384 105C475.984 105.4 475.718 105.867 475.584 106.4L474.784 112.8C474.251 117.067 473.651 121.2 472.984 125.2C472.451 129.067 471.784 132.533 470.984 135.6C470.318 138.533 469.451 140.933 468.384 142.8C467.451 144.533 466.318 145.4 464.984 145.4H464.784C464.251 145.4 463.718 145.267 463.184 145C462.784 144.733 462.584 144.067 462.584 143C462.584 142.467 462.718 141.667 462.984 140.6C464.051 135.933 464.718 132.067 464.984 129C465.251 125.933 465.451 123.2 465.584 120.8V119.4C465.584 118.733 465.584 117.933 465.584 117C465.718 116.067 465.784 114.933 465.784 113.6V108.4C465.784 106.933 465.784 105.4 465.784 103.8C465.784 102.2 465.651 100.467 465.384 98.6L464.784 86.8C464.784 86 465.118 85.2667 465.784 84.6C466.451 83.9333 467.318 83.3333 468.384 82.8C469.451 82.2667 470.584 81.8667 471.784 81.6C472.984 81.3333 474.051 81.2 474.984 81.2C477.251 81.2 478.384 82.6667 478.384 85.6V86.6L478.184 91V92.2C478.184 93.1333 478.384 93.7333 478.784 94C479.184 94.1333 479.984 94.3333 481.184 94.6H481.784C482.851 94.7333 484.584 94.8667 486.984 95C489.384 95.1333 491.784 95.4 494.184 95.8C496.584 96.2 498.651 96.8667 500.384 97.8C502.251 98.6 503.184 99.8 503.184 101.4C503.184 101.933 503.051 102.733 502.784 103.8C502.518 104.733 502.184 105.733 501.784 106.8C501.384 107.733 501.051 108.6 500.784 109.4C500.518 110.2 500.384 110.733 500.384 111C497.984 120.2 496.784 129.8 496.784 139.8C496.784 140.6 496.851 142.067 496.984 144.2C497.118 146.333 497.384 148.533 497.784 150.8C498.184 153.067 498.784 155.067 499.584 156.8C500.384 158.533 501.384 159.4 502.584 159.4C504.584 159.4 506.384 158.2 507.984 155.8C509.584 153.267 510.984 150.4 512.184 147.2C513.384 143.867 514.318 140.533 514.984 137.2C515.784 133.867 516.318 131.4 516.584 129.8C516.851 128.333 517.251 127.467 517.784 127.2C518.451 126.8 519.051 126.6 519.584 126.6C521.451 126.6 522.384 127.8 522.384 130.2C522.384 130.467 522.318 131.2 522.184 132.4C522.184 133.467 522.118 134.267 521.984 134.8ZM595.37 141.2C595.104 143.067 594.437 145.267 593.37 147.8C592.304 150.333 590.904 152.8 589.17 155.2C587.57 157.467 585.637 159.4 583.37 161C581.237 162.6 578.837 163.4 576.17 163.4C572.17 163.4 568.637 161.867 565.57 158.8C562.637 155.733 560.837 151.4 560.17 145.8C559.37 147.933 558.437 150.4 557.37 153.2C556.304 156 554.97 158.6 553.37 161C551.77 163.4 549.904 165.4 547.77 167C545.77 168.733 543.37 169.6 540.57 169.6C539.77 169.6 539.17 169.533 538.77 169.4C538.37 169.267 537.904 169.067 537.37 168.8C536.97 168.667 536.437 168.533 535.77 168.4C535.237 168.267 534.437 168.2 533.37 168.2C530.17 168.2 527.437 167.133 525.17 165C523.037 163 521.304 160.4 519.97 157.2C518.637 154 517.637 150.533 516.97 146.8C516.437 142.933 516.17 139.333 516.17 136C516.17 128 516.57 120.4 517.37 113.2C518.304 106 519.77 99.6667 521.77 94.2C523.77 88.6 526.37 84.2 529.57 81C532.77 77.6667 536.637 76 541.17 76C543.837 76 545.837 76.2667 547.17 76.8C548.637 77.2 549.97 77.7333 551.17 78.4C552.37 78.9333 553.637 79.5333 554.97 80.2C556.437 80.8667 558.437 81.4 560.97 81.8C563.77 83.4 565.704 85.3333 566.77 87.6C567.97 89.7333 568.704 92.0667 568.97 94.6C569.37 97.1333 569.504 99.8 569.37 102.6C569.237 105.267 569.37 107.933 569.77 110.6C569.77 110.733 570.037 110.933 570.57 111.2C571.237 111.467 571.97 111.8 572.77 112.2C573.57 112.467 574.237 112.933 574.77 113.6C575.437 114.133 575.77 114.867 575.77 115.8V116.6C574.437 120.067 573.637 123.133 573.37 125.8C573.104 128.467 572.97 131.667 572.97 135.4C572.97 137.267 573.037 139.333 573.17 141.6C573.437 143.733 573.77 145.8 574.17 147.8C574.704 149.667 575.437 151.267 576.37 152.6C577.304 153.8 578.504 154.4 579.97 154.4C581.57 154.4 582.97 153.6 584.17 152C585.504 150.4 586.57 148.6 587.37 146.6C588.304 144.467 589.037 142.333 589.57 140.2C590.237 138.067 590.637 136.467 590.77 135.4C591.037 133.8 591.704 133 592.77 133C593.437 133 594.037 133.4 594.57 134.2C595.237 134.867 595.57 136.133 595.57 138C595.57 138.533 595.57 139.067 595.57 139.6C595.57 140 595.504 140.533 595.37 141.2ZM558.37 108.8C558.37 107.333 558.237 105.6 557.97 103.6C557.704 101.6 557.237 99.7333 556.57 98C555.904 96.2667 554.904 94.8 553.57 93.6C552.237 92.4 550.437 91.8 548.17 91.8C544.437 91.8 541.37 93.5333 538.97 97C536.704 100.333 534.904 104.333 533.57 109C532.237 113.533 531.37 118.267 530.97 123.2C530.57 128 530.37 131.8 530.37 134.6C530.37 136.733 530.437 139.333 530.57 142.4C530.837 145.333 531.237 148.133 531.77 150.8C532.304 153.467 533.037 155.733 533.97 157.6C535.037 159.467 536.37 160.4 537.97 160.4C541.837 160.4 544.77 158.933 546.77 156C548.904 152.933 550.504 149.2 551.57 144.8C552.637 140.267 553.37 135.467 553.77 130.4C554.304 125.2 554.77 120.467 555.17 116.2C555.437 113.933 556.037 112.533 556.97 112C557.904 111.333 558.37 110.867 558.37 110.6V108.8ZM656.627 113.8C654.76 117.4 653.027 121.2 651.427 125.2C649.827 129.2 648.627 132.333 647.827 134.6C647.693 135.267 647.293 136.667 646.627 138.8C646.093 140.933 645.427 143.333 644.627 146C643.96 148.533 643.36 151.067 642.827 153.6C642.293 156.133 642.027 158.2 642.027 159.8C642.027 160.467 641.427 161.067 640.227 161.6C639.027 162.133 637.493 162.4 635.627 162.4C632.693 162.4 630.36 162 628.627 161.2C626.893 160.4 625.56 159.133 624.627 157.4C623.827 155.533 623.293 153.133 623.027 150.2C622.893 147.267 622.827 143.733 622.827 139.6V124.6C622.827 123.533 622.76 122.467 622.627 121.4C622.627 120.333 622.427 119.667 622.027 119.4C621.36 119.667 620.493 121.4 619.427 124.6C618.493 127.8 617.56 131.733 616.627 136.4C615.827 140.933 615.093 145.733 614.427 150.8C613.76 155.867 613.427 160.4 613.427 164.4C613.427 165.867 612.627 166.733 611.027 167C609.56 167.267 607.893 167.4 606.027 167.4C605.493 167.4 604.56 167.267 603.227 167C602.027 166.867 600.76 166.667 599.427 166.4C598.227 166.133 597.093 165.733 596.027 165.2C594.96 164.8 594.293 164.267 594.027 163.6C593.36 161.867 592.827 159 592.427 155C592.16 151 592.027 144.8 592.027 136.4C592.027 131.467 592.093 125.733 592.227 119.2C592.493 112.667 592.76 105 593.027 96.2C593.027 95 592.96 93.4667 592.827 91.6C592.693 89.6 592.627 88.4667 592.627 88.2C592.627 87.1333 593.027 86.5333 593.827 86.4C594.76 86.1333 595.427 86 595.827 86C596.76 86 597.827 86.1333 599.027 86.4C600.36 86.5333 601.627 86.7333 602.827 87C604.16 87.2667 605.36 87.6 606.427 88C607.493 88.2667 608.227 88.5333 608.627 88.8V137C609.293 134.333 610.027 131.267 610.827 127.8C611.76 124.2 612.76 120.667 613.827 117.2C615.027 113.733 616.293 110.533 617.627 107.6C618.96 104.667 620.36 102.533 621.827 101.2C622.36 100.8 623.36 100.533 624.827 100.4C626.293 100.133 627.493 100 628.427 100C629.093 100 629.893 100.133 630.827 100.4C631.893 100.533 632.893 100.8 633.827 101.2C634.76 101.6 635.56 102.133 636.227 102.8C637.027 103.333 637.493 104 637.627 104.8V137.2V139C637.627 139.8 637.76 140.2 638.027 140.2C638.293 140.2 639.027 138.4 640.227 134.8C641.56 131.2 643.093 126.933 644.827 122C646.56 117.067 648.427 112 650.427 106.8C652.427 101.6 654.227 97.4667 655.827 94.4C656.093 93.8667 656.96 93.6 658.427 93.6C660.027 93.4667 661.427 93.4 662.627 93.4C663.56 93.4 664.827 93.7333 666.427 94.4C668.027 94.9333 669.56 95.7333 671.027 96.8C672.627 97.8667 673.96 99.0667 675.027 100.4C676.227 101.733 676.827 103.133 676.827 104.6C676.827 104.867 676.427 105.667 675.627 107C674.827 108.2 674.293 109.467 674.027 110.8C673.093 114.533 672.427 118.2 672.027 121.8C671.76 125.4 671.627 130 671.627 135.6C671.627 138 671.693 140.4 671.827 142.8C672.093 145.2 672.427 147.4 672.827 149.4C673.36 151.267 674.027 152.8 674.827 154C675.627 155.2 676.693 155.8 678.027 155.8C679.893 155.8 681.56 155.2 683.027 154C684.493 152.667 685.76 150.933 686.827 148.8C687.893 146.667 688.827 144.2 689.627 141.4C690.427 138.467 691.093 135.467 691.627 132.4C692.293 129.2 693.493 127.6 695.227 127.6C696.293 127.6 696.96 127.867 697.227 128.4C697.627 128.933 697.827 130.133 697.827 132C697.827 133.067 697.76 133.8 697.627 134.2C697.493 135.933 696.893 138.667 695.827 142.4C694.893 146 693.493 149.667 691.627 153.4C689.893 157 687.693 160.2 685.027 163C682.36 165.667 679.293 167 675.827 167C671.693 167 668.293 166 665.627 164C662.96 162.133 660.893 159.6 659.427 156.4C657.96 153.067 656.893 149.267 656.227 145C655.693 140.733 655.427 136.267 655.427 131.6V130.2L656.627 113.8Z" fill="black"/>
</svg>
