<?xml version="1.0" encoding="iso-8859-1"?>
<!-- Generator: Adobe Illustrator 18.0.0, SVG Export Plug-In . SVG Version: 6.00 Build 0)  -->
<!DOCTYPE svg PUBLIC "-//W3C//DTD SVG 1.1//EN" "http://www.w3.org/Graphics/SVG/1.1/DTD/svg11.dtd">
<svg version="1.1" id="Capa_1" xmlns="http://www.w3.org/2000/svg" xmlns:xlink="http://www.w3.org/1999/xlink" x="0px" y="0px"
	 viewBox="0 0 463.751 463.751" style="enable-background:new 0 0 463.751 463.751;" xml:space="preserve">
<g>
	<path d="M345,0h-226.25C95.177,0,75.998,19.178,75.998,42.752v378.246c0,23.574,19.179,42.752,42.752,42.752H345
		c23.574,0,42.752-19.179,42.752-42.752V42.752C387.753,19.178,368.574,0,345,0z M105.998,85.838h251.754v291.984H105.998V85.838z
		 M118.751,30H345c7.032,0,12.752,5.721,12.752,12.752v23.085H105.998V42.752C105.998,35.721,111.719,30,118.751,30z M345,433.751
		h-226.25c-7.032,0-12.752-5.721-12.752-12.752v-23.176h251.754v23.176C357.753,428.03,352.032,433.751,345,433.751z"/>
	<path d="M241.875,222.92v-56.057c10.749,4.055,18.417,14.445,18.417,26.595c0,5.523,4.477,10,10,10s10-4.477,10-10
		c0-23.269-16.503-42.752-38.417-47.373v-8.844c0-5.523-4.477-10-10-10s-10,4.477-10,10v8.844
		c-21.915,4.621-38.417,24.104-38.417,47.373s16.502,42.752,38.417,47.373v56.057c-10.749-4.055-18.417-14.445-18.417-26.596
		c0-5.523-4.477-10-10-10s-10,4.477-10,10c0,23.269,16.502,42.752,38.417,47.373v8.844c0,5.523,4.477,10,10,10s10-4.477,10-10
		v-8.844c21.915-4.621,38.417-24.104,38.417-47.373S263.79,227.54,241.875,222.92z M203.458,193.458
		c0-12.151,7.668-22.54,18.417-26.595v53.191C211.126,215.998,203.458,205.609,203.458,193.458z M241.875,296.888v-53.191
		c10.749,4.055,18.417,14.445,18.417,26.595C260.293,282.443,252.625,292.833,241.875,296.888z"/>
	<path d="M212.376,58.439h38.998c5.523,0,10-4.477,10-10s-4.477-10-10-10h-38.998c-5.523,0-10,4.477-10,10
		S206.853,58.439,212.376,58.439z"/>
	<path d="M231.879,405.524c-2.64,0-5.21,1.06-7.07,2.92c-1.87,1.86-2.93,4.44-2.93,7.08c0,2.63,1.06,5.21,2.93,7.07
		c1.86,1.86,4.43,2.93,7.07,2.93c2.63,0,5.21-1.07,7.07-2.93c1.86-1.87,2.93-4.44,2.93-7.07c0-2.64-1.07-5.21-2.93-7.08
		C237.089,406.584,234.508,405.524,231.879,405.524z"/>
</g>
<g>
</g>
<g>
</g>
<g>
</g>
<g>
</g>
<g>
</g>
<g>
</g>
<g>
</g>
<g>
</g>
<g>
</g>
<g>
</g>
<g>
</g>
<g>
</g>
<g>
</g>
<g>
</g>
<g>
</g>
</svg>
